<svg width="414" height="321" viewBox="0 0 414 321" fill="none" xmlns="http://www.w3.org/2000/svg">
<path d="M346.861 268.694C331.263 282.123 309.243 287.052 289.111 292.234C261.983 299.216 234.364 301.393 206.421 300.126C192.332 299.488 178.279 298.182 164.249 296.739C150.219 295.295 135.082 295.096 121.366 292.006C92.9914 285.614 69.8279 270.503 59.11 242.616C47.1559 211.505 46.4676 171.617 49.0916 138.753C50.5694 120.289 54.2216 101.521 58.2334 83.4673C61.5092 68.7416 67.7545 52.2914 79.8378 42.3095C106.527 20.2785 139.296 20.5004 171.669 23.1321C201.966 25.5952 231.619 17.6299 261.851 19.9892C281.166 21.5002 302.174 26.1682 319.983 33.9481C341.708 43.447 357.396 66.7812 361.866 89.7165C364.675 104.153 362.779 120.216 363.515 134.849C364.259 149.751 360.534 165.37 360.987 180.615C361.661 203.646 371.598 224.877 362.04 247.742C358.709 255.828 353.507 263.009 346.861 268.694Z" fill="#2a56b8"/>
<g clip-path="url(#clip0_114_512)">
<path d="M266.105 167.086C274.428 162.218 285.518 161.201 293.535 166.558C283.526 169.682 274.946 176.247 269.311 185.089C267.15 188.507 265.103 192.534 261.265 193.809C258.877 194.602 256.212 194.113 253.945 193.022C251.678 191.93 249.734 190.282 247.818 188.651L247.206 188.51C251.837 180.052 257.782 171.954 266.105 167.086Z" fill="#F0F0F0"/>
<path d="M293.446 166.74C285.489 166.136 277.543 168.055 270.738 172.224C269.257 173.096 267.923 174.196 266.785 175.483C265.716 176.772 265.012 178.325 264.747 179.978C264.468 181.515 264.361 183.119 263.713 184.562C263.371 185.295 262.877 185.948 262.265 186.477C261.653 187.006 260.935 187.4 260.16 187.632C258.244 188.262 256.215 188.166 254.235 188.002C252.036 187.821 249.755 187.598 247.65 188.416C247.395 188.515 247.256 188.114 247.511 188.015C251.174 186.591 255.102 188.199 258.864 187.521C260.619 187.205 262.29 186.358 263.156 184.734C263.913 183.313 264.025 181.659 264.294 180.101C264.529 178.484 265.157 176.949 266.123 175.631C267.192 174.29 268.481 173.141 269.936 172.233C273.179 170.136 276.731 168.562 280.462 167.568C284.715 166.411 289.134 165.99 293.529 166.323C293.8 166.343 293.716 166.76 293.446 166.74Z" fill="white"/>
<path d="M272.85 170.753C272.306 169.516 272.219 168.126 272.604 166.831C272.99 165.536 273.823 164.42 274.956 163.683C275.186 163.535 275.427 163.884 275.197 164.033C274.141 164.718 273.365 165.757 273.008 166.964C272.652 168.171 272.738 169.465 273.252 170.614C273.363 170.863 272.961 171.001 272.85 170.753Z" fill="white"/>
<path d="M264.785 179.18C267.351 180.204 270.208 180.223 272.787 179.233C273.042 179.135 273.181 179.537 272.926 179.635C270.241 180.659 267.267 180.634 264.6 179.563C264.346 179.46 264.533 179.079 264.785 179.18Z" fill="white"/>
<path d="M284.635 166.969C284.746 167.491 284.985 167.978 285.33 168.385C285.676 168.792 286.117 169.107 286.614 169.302C286.87 169.401 286.683 169.783 286.429 169.684C285.88 169.467 285.394 169.118 285.011 168.669C284.628 168.22 284.361 167.684 284.233 167.108C284.217 167.055 284.221 166.997 284.245 166.947C284.27 166.897 284.312 166.858 284.364 166.838C284.418 166.819 284.476 166.823 284.526 166.848C284.577 166.872 284.616 166.916 284.635 166.969Z" fill="white"/>
<path d="M296.858 199.035C296.697 198.977 296.536 198.92 296.371 198.865C294.2 198.106 291.971 197.525 289.706 197.127C289.531 197.094 289.354 197.062 289.178 197.034C283.71 196.134 278.123 196.257 272.7 197.397C270.543 197.852 268.423 198.471 266.359 199.248C263.509 200.322 260.505 201.712 257.554 201.78C257.246 201.79 256.938 201.782 256.631 201.754L247.081 189.267C247.074 189.228 247.063 189.191 247.056 189.151L246.652 188.67C246.755 188.623 246.864 188.576 246.967 188.528C247.027 188.5 247.09 188.475 247.15 188.447C247.19 188.43 247.231 188.412 247.267 188.394C247.28 188.388 247.294 188.382 247.305 188.379C247.34 188.36 247.375 188.347 247.408 188.331C248.014 188.066 248.623 187.805 249.234 187.548C249.237 187.546 249.237 187.546 249.242 187.547C253.907 185.6 258.776 184.025 263.728 183.239C263.877 183.216 264.029 183.19 264.183 183.172C266.417 182.83 268.676 182.672 270.936 182.698C272.174 182.716 273.409 182.797 274.639 182.941C277.815 183.317 280.912 184.191 283.816 185.53C289.606 188.2 294.477 192.692 296.693 198.583C296.75 198.734 296.804 198.882 296.858 199.035Z" fill="#F0F0F0"/>
<path d="M296.678 199.128C290.688 193.854 283.188 190.603 275.245 189.834C273.538 189.639 271.811 189.713 270.127 190.055C268.497 190.442 267.001 191.257 265.793 192.418C264.645 193.477 263.594 194.693 262.209 195.455C261.494 195.834 260.707 196.058 259.899 196.112C259.092 196.166 258.282 196.049 257.523 195.768C255.614 195.117 254.052 193.818 252.569 192.495C250.923 191.027 249.236 189.475 247.062 188.861C246.799 188.787 246.93 188.382 247.193 188.457C250.975 189.525 253.143 193.175 256.555 194.899C258.147 195.703 259.991 196.033 261.66 195.257C263.119 194.579 264.205 193.325 265.358 192.243C266.519 191.093 267.944 190.246 269.509 189.775C271.17 189.348 272.891 189.207 274.6 189.358C278.451 189.636 282.235 190.518 285.812 191.972C289.904 193.608 293.687 195.933 296.995 198.844C297.2 199.025 296.881 199.307 296.678 199.128Z" fill="white"/>
<path d="M277.817 189.931C278.127 188.616 278.894 187.454 279.982 186.652C281.07 185.85 282.407 185.461 283.755 185.554C283.81 185.558 283.861 185.584 283.898 185.625C283.934 185.666 283.953 185.72 283.951 185.775C283.948 185.83 283.925 185.882 283.885 185.92C283.845 185.958 283.792 185.979 283.737 185.979C282.481 185.89 281.236 186.252 280.225 187.001C279.213 187.75 278.503 188.835 278.222 190.062C278.16 190.328 277.756 190.196 277.817 189.931Z" fill="white"/>
<path d="M266.304 191.804C267.737 194.166 270.006 195.901 272.661 196.664C272.924 196.739 272.794 197.144 272.531 197.069C269.77 196.27 267.411 194.459 265.926 191.998C265.785 191.763 266.164 191.571 266.304 191.804Z" fill="white"/>
<path d="M289.505 194.005C289.279 194.489 289.177 195.022 289.207 195.555C289.238 196.088 289.401 196.605 289.681 197.06C289.825 197.293 289.446 197.485 289.302 197.254C288.995 196.75 288.816 196.178 288.781 195.589C288.746 195 288.856 194.412 289.1 193.875C289.119 193.822 289.157 193.779 289.207 193.753C289.257 193.728 289.314 193.722 289.368 193.738C289.421 193.755 289.466 193.793 289.491 193.843C289.517 193.893 289.522 193.952 289.505 194.005Z" fill="white"/>
<path d="M104.054 243.281C105.031 233.689 110.749 224.131 119.802 220.815C116.424 230.741 116.665 241.543 120.484 251.308C121.97 255.069 124.015 259.097 122.781 262.948C122.014 265.345 120.047 267.209 117.829 268.396C115.611 269.584 113.133 270.182 110.686 270.768L110.211 271.179C106.112 262.452 103.078 252.874 104.054 243.281Z" fill="#F0F0F0"/>
<path d="M119.897 220.994C114.717 227.065 111.581 234.614 110.936 242.569C110.767 244.279 110.868 246.005 111.236 247.684C111.647 249.307 112.486 250.791 113.665 251.981C114.741 253.112 115.974 254.145 116.757 255.518C117.147 256.227 117.383 257.011 117.449 257.817C117.516 258.624 117.411 259.435 117.142 260.199C116.52 262.118 115.246 263.699 113.946 265.203C112.503 266.872 110.978 268.582 110.398 270.765C110.327 271.03 109.921 270.905 109.991 270.641C111.001 266.843 114.617 264.618 116.288 261.18C117.068 259.576 117.369 257.727 116.567 256.07C115.866 254.621 114.596 253.555 113.496 252.419C112.329 251.275 111.46 249.863 110.965 248.306C110.513 246.652 110.345 244.932 110.469 243.222C110.688 239.366 111.512 235.569 112.91 231.969C114.483 227.852 116.748 224.035 119.608 220.681C119.786 220.474 120.073 220.788 119.897 220.994Z" fill="white"/>
<path d="M110.993 239.996C109.673 239.706 108.499 238.957 107.681 237.882C106.862 236.806 106.453 235.475 106.525 234.126C106.528 234.071 106.553 234.02 106.594 233.983C106.635 233.946 106.688 233.926 106.743 233.927C106.798 233.929 106.85 233.952 106.889 233.991C106.927 234.03 106.949 234.083 106.95 234.138C106.88 235.394 107.262 236.634 108.026 237.634C108.79 238.633 109.887 239.327 111.117 239.589C111.385 239.647 111.259 240.053 110.993 239.996Z" fill="white"/>
<path d="M113.043 251.479C115.383 250.01 117.083 247.714 117.804 245.047C117.875 244.783 118.282 244.908 118.211 245.172C117.454 247.945 115.68 250.331 113.243 251.854C113.01 251.999 112.812 251.623 113.043 251.479Z" fill="white"/>
<path d="M114.886 228.246C115.373 228.464 115.907 228.558 116.44 228.519C116.972 228.48 117.487 228.31 117.937 228.023C118.168 227.875 118.366 228.251 118.137 228.398C117.638 228.713 117.069 228.901 116.481 228.945C115.892 228.989 115.302 228.889 114.762 228.652C114.709 228.634 114.665 228.597 114.639 228.548C114.612 228.498 114.606 228.441 114.62 228.387C114.637 228.333 114.674 228.288 114.724 228.262C114.774 228.236 114.832 228.23 114.886 228.246Z" fill="white"/>
<path d="M147.99 237.282C147.848 237.378 147.707 237.475 147.566 237.575C145.673 238.881 143.889 240.339 142.232 241.934C142.102 242.055 141.972 242.18 141.845 242.305C137.894 246.19 134.699 250.776 132.422 255.828C131.517 257.839 130.767 259.916 130.178 262.041C129.364 264.976 128.716 268.223 127.03 270.646C126.857 270.901 126.668 271.145 126.465 271.376L110.75 271.727C110.714 271.709 110.677 271.696 110.641 271.679L110.014 271.721C110.037 271.61 110.063 271.494 110.086 271.383C110.099 271.318 110.115 271.253 110.128 271.188C110.138 271.145 110.148 271.101 110.154 271.062C110.157 271.047 110.16 271.033 110.164 271.022C110.17 270.983 110.18 270.946 110.186 270.91C110.33 270.265 110.478 269.62 110.631 268.974C110.631 268.97 110.631 268.97 110.634 268.967C111.813 264.051 113.412 259.19 115.698 254.726C115.767 254.592 115.835 254.454 115.911 254.32C116.953 252.313 118.157 250.396 119.511 248.586C120.256 247.597 121.05 246.646 121.89 245.738C124.067 243.395 126.599 241.408 129.393 239.852C134.963 236.75 141.463 235.465 147.528 237.148C147.683 237.192 147.834 237.235 147.99 237.282Z" fill="#F0F0F0"/>
<path d="M147.959 237.482C140.168 239.211 133.119 243.35 127.815 249.313C126.65 250.577 125.692 252.016 124.975 253.578C124.327 255.121 124.103 256.811 124.328 258.471C124.506 260.022 124.869 261.589 124.667 263.157C124.552 263.958 124.269 264.726 123.836 265.41C123.403 266.094 122.831 266.679 122.157 267.126C120.505 268.284 118.536 268.78 116.593 269.197C114.436 269.661 112.188 270.109 110.411 271.502C110.195 271.671 109.946 271.327 110.161 271.158C113.254 268.734 117.48 269.134 120.884 267.395C122.472 266.584 123.826 265.289 124.184 263.483C124.496 261.904 124.124 260.289 123.93 258.719C123.687 257.103 123.843 255.453 124.385 253.911C125.019 252.318 125.921 250.844 127.05 249.553C129.546 246.607 132.489 244.071 135.773 242.038C139.507 239.698 143.614 238.014 147.917 237.059C148.183 237 148.223 237.423 147.959 237.482Z" fill="white"/>
<path d="M129.41 247.293C128.531 246.267 128.044 244.962 128.038 243.61C128.032 242.259 128.506 240.95 129.376 239.916C129.553 239.707 129.886 239.972 129.708 240.181C128.896 241.142 128.455 242.362 128.463 243.62C128.471 244.879 128.929 246.093 129.754 247.043C129.933 247.25 129.588 247.498 129.41 247.293Z" fill="white"/>
<path d="M124.134 257.696C126.886 257.932 129.626 257.122 131.807 255.427C132.023 255.259 132.272 255.603 132.057 255.771C129.783 257.53 126.93 258.368 124.067 258.116C123.794 258.092 123.862 257.672 124.134 257.696Z" fill="white"/>
<path d="M139.592 240.255C139.85 240.723 140.219 241.12 140.668 241.409C141.117 241.699 141.63 241.872 142.163 241.914C142.436 241.935 142.367 242.355 142.096 242.334C141.508 242.285 140.941 242.092 140.445 241.774C139.948 241.455 139.537 241.019 139.248 240.505C139.217 240.459 139.204 240.402 139.213 240.347C139.222 240.292 139.251 240.242 139.295 240.208C139.341 240.175 139.398 240.162 139.453 240.171C139.509 240.179 139.559 240.21 139.592 240.255Z" fill="white"/>
<path d="M225.174 74.3653L140.576 66.0436C139.596 65.9419 138.648 65.6327 137.797 65.1365C136.919 64.6254 136.14 63.9595 135.499 63.1711C134.121 61.4856 133.365 59.3772 133.358 57.2C133.357 56.6698 133.405 56.1405 133.499 55.6187C133.59 55.1189 133.728 54.629 133.913 54.1557C134.091 53.6978 134.316 53.2594 134.584 52.8473C134.848 52.4425 135.154 52.0673 135.498 51.7283C135.833 51.3981 136.204 51.1068 136.604 50.86C137.384 50.3796 138.264 50.0883 139.176 50.0096C139.642 49.9696 140.111 49.9816 140.575 50.0454L225.174 61.4897C225.819 61.5856 226.431 61.8417 226.952 62.2346C227.523 62.6631 228.011 63.192 228.393 63.7955C228.818 64.4602 229.143 65.1837 229.358 65.9428C229.593 66.7604 229.712 67.6068 229.711 68.4574C229.712 68.8719 229.683 69.2858 229.625 69.6962C229.57 70.0873 229.485 70.4736 229.372 70.8518C229.264 71.2119 229.126 71.5622 228.959 71.8991C228.8 72.2209 228.61 72.5268 228.393 72.8127C228.191 73.0806 227.959 73.3256 227.703 73.5432C227.466 73.7449 227.204 73.916 226.924 74.0525C226.381 74.3175 225.774 74.4257 225.173 74.3649L225.174 74.3653Z" fill="#E4E4E4"/>
<path d="M187.572 70.6668L140.576 66.0436C139.596 65.9419 138.648 65.6327 137.797 65.1365C136.919 64.6254 136.14 63.9595 135.499 63.1711C134.121 61.4856 133.365 59.3772 133.358 57.2C133.357 56.6698 133.405 56.1405 133.499 55.6187C133.59 55.1189 133.728 54.629 133.913 54.1557C134.091 53.6978 134.316 53.2594 134.584 52.8473C134.848 52.4425 135.154 52.0673 135.498 51.7283C135.833 51.3981 136.204 51.1068 136.604 50.86C137.384 50.3796 138.264 50.0883 139.176 50.0096C139.642 49.9696 140.111 49.9816 140.575 50.0454L187.571 56.4042L187.572 70.6668Z" fill="#8B776A"/>
<path d="M187.452 71.7173C187.235 71.6946 187.026 71.6209 186.842 71.5021C186.649 71.3773 186.48 71.2176 186.345 71.0312C186.198 70.8297 186.085 70.6061 186.008 70.3687C185.926 70.116 185.884 69.8519 185.884 69.5861V57.0882C185.883 56.8319 185.924 56.5772 186.008 56.335C186.082 56.1207 186.196 55.9227 186.345 55.7521C186.481 55.5952 186.652 55.4723 186.844 55.3935C187.037 55.3167 187.248 55.292 187.454 55.3217C187.671 55.3539 187.879 55.4356 188.06 55.5606C188.252 55.6937 188.419 55.8601 188.552 56.052C188.697 56.2571 188.809 56.4833 188.885 56.7227C188.966 56.9751 189.007 57.2385 189.007 57.5035V69.9007C189.009 70.1568 188.967 70.4113 188.885 70.6539C188.812 70.8704 188.699 71.0714 188.552 71.2464C188.418 71.4069 188.249 71.535 188.058 71.6212C187.868 71.7049 187.659 71.738 187.452 71.7173Z" fill="#3F3D56"/>
<path d="M112.274 61.4585C112.19 61.4499 112.107 61.4356 112.025 61.4158C111.942 61.3954 111.859 61.3695 111.779 61.3383C111.696 61.3063 111.616 61.269 111.538 61.2268C111.457 61.1831 111.379 61.1344 111.305 61.0812C110.853 60.7595 110.532 60.2868 110.399 59.7487C110.355 59.5698 110.332 59.3861 110.333 59.2018V49.817C110.332 49.6381 110.354 49.4598 110.399 49.2865C110.441 49.123 110.505 48.966 110.591 48.8203C110.758 48.5355 111.007 48.3075 111.305 48.1657C111.455 48.094 111.615 48.0448 111.779 48.0197C111.943 47.995 112.109 47.9935 112.274 48.0154C112.444 48.0382 112.61 48.0833 112.768 48.1496C112.935 48.2197 113.093 48.31 113.238 48.4186L120.733 53.9868C120.867 54.0865 120.99 54.2005 121.099 54.3268C121.315 54.5769 121.476 54.8704 121.569 55.1876C121.616 55.3467 121.645 55.5103 121.657 55.6758C121.657 55.6889 121.658 55.7021 121.659 55.7152C121.661 55.7283 121.661 55.7416 121.659 55.7547V55.8339C121.66 56.0086 121.639 56.1827 121.596 56.3522C121.556 56.5119 121.495 56.6655 121.413 56.8088C121.335 56.9477 121.236 57.0745 121.121 57.1854C121.006 57.2967 120.875 57.3905 120.733 57.4637L113.237 61.2802C113.163 61.3182 113.086 61.3507 113.006 61.3774C112.928 61.4039 112.848 61.4246 112.767 61.4395C112.686 61.4543 112.604 61.4633 112.521 61.4664C112.439 61.4695 112.356 61.4669 112.274 61.4585Z" fill="#CACACA"/>
<path d="M225.19 115.23L140.601 116.825C139.643 116.843 138.693 116.644 137.823 116.244C136.95 115.839 136.169 115.262 135.525 114.547C134.849 113.798 134.319 112.93 133.961 111.986C133.192 109.951 133.192 107.705 133.961 105.669C134.319 104.725 134.849 103.857 135.525 103.107C136.168 102.392 136.95 101.814 137.823 101.409C138.693 101.008 139.643 100.809 140.601 100.826L225.19 102.355C225.82 102.371 226.435 102.557 226.969 102.893C227.538 103.253 228.028 103.725 228.409 104.282C228.837 104.904 229.163 105.59 229.374 106.316C229.844 107.931 229.844 109.647 229.374 111.262C229.163 111.988 228.837 112.675 228.409 113.297C228.029 113.855 227.539 114.329 226.969 114.691C226.435 115.027 225.821 115.213 225.19 115.23Z" fill="#E4E4E4"/>
<path d="M173.663 116.202L140.601 116.825C139.643 116.843 138.693 116.644 137.823 116.244C136.95 115.839 136.169 115.262 135.525 114.547C134.849 113.798 134.319 112.93 133.961 111.986C133.578 110.977 133.382 109.907 133.384 108.828C133.384 108.292 133.431 107.757 133.525 107.23C133.617 106.715 133.756 106.209 133.939 105.719C134.119 105.237 134.344 104.772 134.61 104.332C134.875 103.895 135.181 103.484 135.524 103.106C135.858 102.736 136.229 102.401 136.63 102.106C137.016 101.823 137.431 101.581 137.867 101.385C138.726 100.999 139.66 100.808 140.601 100.826L173.663 101.423V116.202Z" fill="#8B776A"/>
<path d="M174.049 117.137C173.823 117.141 173.6 117.091 173.398 116.99C173.192 116.885 173.011 116.74 172.864 116.561C172.706 116.369 172.584 116.151 172.503 115.916C172.415 115.66 172.37 115.392 172.37 115.122V102.188C172.37 101.918 172.415 101.649 172.503 101.393C172.584 101.158 172.706 100.94 172.864 100.748C173.011 100.57 173.192 100.425 173.398 100.321C173.6 100.22 173.823 100.169 174.049 100.174C174.276 100.18 174.499 100.239 174.698 100.348C174.903 100.461 175.083 100.613 175.227 100.796C175.383 100.991 175.503 101.212 175.584 101.449C175.671 101.704 175.715 101.972 175.714 102.242V115.068C175.715 115.338 175.671 115.606 175.584 115.861C175.503 116.098 175.383 116.319 175.227 116.515C175.083 116.698 174.903 116.85 174.698 116.963C174.499 117.072 174.276 117.131 174.049 117.137Z" fill="#3F3D56"/>
<path d="M112.303 115.557C112.135 115.56 111.969 115.539 111.808 115.495C111.725 115.473 111.645 115.445 111.567 115.412C111.486 115.378 111.409 115.339 111.334 115.294C111.184 115.205 111.047 115.096 110.926 114.971C110.806 114.846 110.703 114.706 110.62 114.555C110.535 114.401 110.471 114.237 110.428 114.067C110.384 113.891 110.361 113.711 110.362 113.529V104.144C110.361 103.963 110.384 103.782 110.428 103.606C110.471 103.437 110.535 103.273 110.62 103.119C110.787 102.814 111.034 102.558 111.334 102.381C111.482 102.292 111.641 102.223 111.808 102.178C112.132 102.09 112.475 102.095 112.796 102.191C112.962 102.241 113.12 102.314 113.267 102.406L120.762 107.095L120.789 107.112L120.816 107.13L120.842 107.148L120.869 107.166C120.989 107.253 121.099 107.353 121.196 107.466C121.293 107.577 121.377 107.7 121.447 107.83C121.517 107.963 121.573 108.102 121.613 108.247C121.654 108.395 121.68 108.548 121.688 108.702V108.832C121.689 109.01 121.668 109.186 121.625 109.358C121.584 109.524 121.523 109.685 121.442 109.836C121.363 109.984 121.265 110.122 121.151 110.246C121.035 110.371 120.903 110.479 120.759 110.569L113.267 115.267C113.192 115.313 113.115 115.355 113.036 115.391C112.958 115.426 112.878 115.456 112.796 115.481C112.716 115.505 112.634 115.524 112.551 115.537C112.469 115.549 112.386 115.556 112.303 115.557Z" fill="#CACACA"/>
<path d="M225.174 155.957L140.576 167.437C139.657 167.57 138.719 167.486 137.838 167.194C136.957 166.901 136.156 166.407 135.499 165.751C134.819 165.075 134.286 164.265 133.935 163.373C133.547 162.389 133.352 161.34 133.358 160.283C133.365 158.106 134.121 155.997 135.499 154.311C136.14 153.523 136.919 152.856 137.797 152.345C138.648 151.848 139.596 151.539 140.576 151.437L225.174 143.082C225.786 143.02 226.402 143.134 226.952 143.41C227.52 143.703 228.013 144.121 228.393 144.634C228.825 145.213 229.152 145.863 229.358 146.556C229.597 147.344 229.716 148.164 229.711 148.988C229.711 149.838 229.593 150.685 229.358 151.502C229.143 152.262 228.818 152.985 228.393 153.65C228.011 154.254 227.523 154.783 226.952 155.212C226.431 155.605 225.819 155.861 225.174 155.957Z" fill="#E4E4E4"/>
<path d="M211.872 157.762L140.576 167.437C139.657 167.569 138.719 167.486 137.838 167.193C136.957 166.901 136.156 166.407 135.499 165.751C134.819 165.075 134.286 164.265 133.935 163.373C133.548 162.389 133.352 161.341 133.358 160.284C133.358 159.743 133.406 159.203 133.499 158.67C133.779 157.069 134.468 155.567 135.498 154.31C135.833 153.902 136.203 153.525 136.604 153.183C136.988 152.855 137.402 152.565 137.841 152.316C138.265 152.076 138.712 151.879 139.176 151.729C139.63 151.582 140.099 151.484 140.575 151.437L211.872 144.395V157.762Z" fill="#8B776A"/>
<path d="M112.273 169.476C112.191 169.487 112.108 169.492 112.025 169.491C111.943 169.491 111.86 169.484 111.779 169.472C111.615 169.447 111.455 169.398 111.305 169.326C111.007 169.184 110.758 168.955 110.591 168.67C110.505 168.524 110.441 168.367 110.399 168.204C110.354 168.031 110.332 167.854 110.332 167.675V158.289C110.332 158.105 110.355 157.922 110.399 157.743C110.532 157.205 110.854 156.732 111.305 156.411C111.452 156.305 111.611 156.219 111.779 156.153C111.938 156.091 112.104 156.051 112.274 156.033C112.438 156.016 112.605 156.022 112.768 156.052C112.931 156.082 113.089 156.135 113.237 156.211L120.733 160.024L120.76 160.038L120.787 160.053L120.814 160.068L120.84 160.084C120.954 160.153 121.058 160.235 121.152 160.33C121.245 160.424 121.327 160.529 121.395 160.642C121.465 160.759 121.521 160.883 121.563 161.012C121.607 161.146 121.636 161.285 121.651 161.426C121.653 161.445 121.654 161.464 121.656 161.482C121.657 161.501 121.658 161.52 121.659 161.539C121.659 161.558 121.66 161.577 121.662 161.596C121.663 161.615 121.663 161.635 121.662 161.654C121.662 161.833 121.64 162.012 121.598 162.187C121.516 162.534 121.355 162.857 121.128 163.132C121.011 163.27 120.879 163.394 120.733 163.501L113.237 169.072C113.163 169.127 113.086 169.178 113.006 169.224C112.929 169.268 112.849 169.308 112.767 169.342C112.687 169.375 112.605 169.403 112.521 169.426C112.44 169.448 112.357 169.465 112.273 169.476Z" fill="#CACACA"/>
<path d="M211.357 148.16C211.879 148.085 212.411 148.125 212.916 148.278C213.42 148.431 213.885 148.692 214.278 149.044C214.671 149.396 214.982 149.829 215.189 150.314C215.396 150.799 215.494 151.324 215.476 151.851L227.437 156.455L222.018 160.327L211.49 155.361C210.607 155.273 209.787 154.863 209.185 154.211C208.584 153.558 208.242 152.707 208.226 151.82C208.209 150.932 208.519 150.069 209.096 149.395C209.673 148.721 210.478 148.281 211.357 148.16Z" fill="#FFB6B6"/>
<path d="M256.771 145.9L258.795 149.579C258.306 151.913 257.042 154.012 255.209 155.536C252.111 158.149 235.913 167.881 235.913 167.881L215.463 157.614L219.04 152.86L235.095 158.241L244.152 149.688L256.771 145.9Z" fill="#3F3D56"/>
<path d="M258.63 203.591L256.515 203.989L269.265 271.662L271.38 271.263L258.63 203.591Z" fill="#CACACA"/>
<path d="M237.582 271.263L239.697 271.662L252.447 203.989L250.332 203.591L237.582 271.263Z" fill="#CACACA"/>
<path d="M253.009 206.779C261.823 206.779 268.968 204.451 268.968 201.579C268.968 198.706 261.823 196.378 253.009 196.378C244.195 196.378 237.049 198.706 237.049 201.579C237.049 204.451 244.195 206.779 253.009 206.779Z" fill="#CACACA"/>
<path d="M219.112 267.4L214.715 267.399L212.624 250.439L219.113 250.439L219.112 267.4Z" fill="#FFB6B6"/>
<path d="M220.233 271.662L206.056 271.661V271.482C206.056 270.018 206.637 268.615 207.672 267.58C208.707 266.545 210.111 265.964 211.574 265.964L220.234 265.964L220.233 271.662Z" fill="#2F2E41"/>
<path d="M240.456 244.323L236.616 246.463L226.531 232.668L232.199 229.508L240.456 244.323Z" fill="#FFB6B6"/>
<path d="M243.511 247.499L231.127 254.402L231.04 254.246C230.328 252.967 230.152 251.458 230.552 250.05C230.952 248.643 231.895 247.451 233.173 246.739L240.737 242.522L243.511 247.499Z" fill="#2F2E41"/>
<path d="M265.43 188.864C265.43 188.864 267.561 195.469 254.481 203.823L237.635 220.61L220.131 262.484L209.739 257.825L225.72 215.165L235.065 198.801L235.336 189.922L237.635 183.663L254.312 177.745L265.43 188.864Z" fill="#2F2E41"/>
<path d="M231.226 244.048L213.839 217.833C213.04 216.626 212.687 215.18 212.839 213.741C212.991 212.302 213.64 210.962 214.673 209.949L232.277 192.728L235.262 189.743H241.941L238.809 201.299L227.944 213.617L240.505 235.846L231.226 244.048Z" fill="#2F2E41"/>
<path d="M244.004 152.946L249.243 145.448L261.214 144.485C261.214 144.485 271.506 154.181 269.633 166.95C267.761 179.718 265.968 192.271 265.968 192.271C265.968 192.271 247.318 179 237.635 183.663L244.004 152.946Z" fill="#3F3D56"/>
<path d="M240.447 192.064C240.54 191.545 240.746 191.053 241.049 190.622C241.353 190.191 241.748 189.832 242.205 189.57C242.663 189.308 243.172 189.149 243.698 189.105C244.223 189.062 244.752 189.133 245.246 189.316L253.38 179.411L255.35 185.774L247.324 194.204C246.962 195.015 246.315 195.664 245.507 196.03C244.698 196.396 243.783 196.452 242.935 196.189C242.088 195.925 241.366 195.359 240.908 194.599C240.449 193.839 240.285 192.937 240.447 192.064Z" fill="#FFB6B6"/>
<path d="M250.687 191.421L247.105 186.246L257.277 172.682L252.037 161.452L252.419 148.094L256.749 147.294L256.803 147.32C258.908 148.532 260.535 150.428 261.415 152.693C262.495 155.394 264.907 165.532 266.248 171.335C266.511 172.46 266.483 173.633 266.164 174.744C265.846 175.854 265.248 176.864 264.429 177.678L250.687 191.421Z" fill="#3F3D56"/>
<path d="M259.82 138.885C262.151 134.963 260.861 129.894 256.94 127.563C253.018 125.231 247.949 126.521 245.618 130.443C243.286 134.365 244.576 139.434 248.498 141.765C252.419 144.097 257.488 142.807 259.82 138.885Z" fill="#FFB6B6"/>
<path d="M258 131.698C257.913 132.897 259.038 137.321 259.038 137.321C259.862 135.933 258.567 140.543 258.567 140.543C272.099 131.11 261.407 121.633 257.224 122.476C257.312 121.276 253.901 121.751 253.901 121.751C252.601 119.727 249.752 122.414 249.752 122.414L250.302 121.489C248.09 122.052 245.905 128.887 245.905 128.887C246.655 131.836 258.087 130.498 258 131.698Z" fill="#2F2E41"/>
<path d="M211.555 158.659C211.373 158.685 211.188 158.661 211.02 158.588C210.849 158.511 210.699 158.395 210.582 158.25C210.449 158.087 210.348 157.9 210.284 157.7C210.211 157.471 210.175 157.232 210.177 156.992V145.277C210.176 145.029 210.212 144.782 210.284 144.544C210.351 144.324 210.451 144.115 210.582 143.925C210.699 143.752 210.848 143.603 211.02 143.485C211.179 143.376 211.363 143.309 211.555 143.288C211.737 143.27 211.922 143.303 212.087 143.383C212.257 143.466 212.406 143.587 212.522 143.737C212.652 143.904 212.751 144.093 212.815 144.295C212.887 144.523 212.924 144.761 212.922 145.001V156.627C212.922 156.875 212.886 157.121 212.815 157.359C212.749 157.581 212.65 157.792 212.522 157.985C212.406 158.162 212.259 158.316 212.087 158.44C211.93 158.555 211.747 158.63 211.555 158.659Z" fill="#3F3D56"/>
<path d="M322.573 272H90.427C90.314 272 90.2057 271.955 90.1259 271.874C90.0461 271.794 90.0013 271.686 90.0013 271.573C90.0013 271.46 90.0461 271.351 90.1259 271.271C90.2057 271.191 90.314 271.146 90.427 271.146H322.573C322.686 271.146 322.795 271.191 322.875 271.271C322.955 271.351 323 271.46 323 271.573C323 271.686 322.955 271.795 322.875 271.875C322.795 271.955 322.686 272 322.573 272Z" fill="#CACACA"/>
</g>
<defs>
<clipPath id="clip0_114_512">
<rect width="233" height="224" fill="white" transform="translate(90 48)"/>
</clipPath>
</defs>
</svg>
